<svg xmlns="http://www.w3.org/2000/svg" width="71" height="58" viewBox="0 0 71 58">
  <metadata><?xpacket begin="﻿" id="W5M0MpCehiHzreSzNTczkc9d"?>
<x:xmpmeta xmlns:x="adobe:ns:meta/" x:xmptk="Adobe XMP Core 5.6-c142 79.160924, 2017/07/13-01:06:39        ">
   <rdf:RDF xmlns:rdf="http://www.w3.org/1999/02/22-rdf-syntax-ns#">
      <rdf:Description rdf:about=""/>
   </rdf:RDF>
</x:xmpmeta>
                                                                                                    
                                                                                                    
                                                                                                    
                                                                                                    
                                                                                                    
                                                                                                    
                                                                                                    
                                                                                                    
                                                                                                    
                                                                                                    
                                                                                                    
                                                                                                    
                                                                                                    
                                                                                                    
                                                                                                    
                                                                                                    
                                                                                                    
                                                                                                    
                                                                                                    
                                                                                                    
                           
<?xpacket end="w"?></metadata>
<defs>
    <style>
      .cls-1 {
        fill: #fff;
        fill-rule: evenodd;
      }
    </style>
  </defs>
  <path class="cls-1" d="M708.1,9330H646.9a4.87,4.87,0,0,1-4.9-4.84V9286.5a4.862,4.862,0,0,1,4.9-4.83h14.844a16.513,16.513,0,0,1-.153-3.63,6.078,6.078,0,0,1,6.121-6.04h19.586a6.079,6.079,0,0,1,6.121,6.04,16.513,16.513,0,0,0,.153,3.63H708.1a4.863,4.863,0,0,1,4.9,4.83v38.66A4.871,4.871,0,0,1,708.1,9330Zm-30.493-9.73a14.5,14.5,0,1,0-14.69-14.5A14.6,14.6,0,0,0,677.609,9320.27Z" transform="translate(-642 -9272)"/>
</svg>
