<svg xmlns="http://www.w3.org/2000/svg" width="32" height="28" viewBox="0 0 32 28">
  <metadata><?xpacket begin="﻿" id="W5M0MpCehiHzreSzNTczkc9d"?>
<x:xmpmeta xmlns:x="adobe:ns:meta/" x:xmptk="Adobe XMP Core 5.6-c142 79.160924, 2017/07/13-01:06:39        ">
   <rdf:RDF xmlns:rdf="http://www.w3.org/1999/02/22-rdf-syntax-ns#">
      <rdf:Description rdf:about=""/>
   </rdf:RDF>
</x:xmpmeta>
                                                                                                    
                                                                                                    
                                                                                                    
                                                                                                    
                                                                                                    
                                                                                                    
                                                                                                    
                                                                                                    
                                                                                                    
                                                                                                    
                                                                                                    
                                                                                                    
                                                                                                    
                                                                                                    
                                                                                                    
                                                                                                    
                                                                                                    
                                                                                                    
                                                                                                    
                                                                                                    
                           
<?xpacket end="w"?></metadata>
<defs>
    <style>
      .cls-1 {
        fill: #f39c12;
        fill-rule: evenodd;
      }
    </style>
  </defs>
  <path id="stack" class="cls-1" d="M499.924,3639.45l-4-15A2.009,2.009,0,0,0,494,3623H474a2.008,2.008,0,0,0-1.922,1.45l-4,15a2.1,2.1,0,0,0-.076.55v7a4,4,0,0,0,4,4h24a4,4,0,0,0,4-4v-7A2.142,2.142,0,0,0,499.924,3639.45ZM498,3647a2,2,0,0,1-2,2H472a2,2,0,0,1-2-2v-7l4-15h20l4,15v7Zm-6.258-20H476.258a1,1,0,0,0-.967.74l-3.445,12a1.01,1.01,0,0,0,.173.87,1.02,1.02,0,0,0,.793.39h4.569l1.447,2.89a2,2,0,0,0,1.789,1.11h6.766a2,2,0,0,0,1.789-1.11l1.447-2.89h4.568a1,1,0,0,0,.967-1.26l-3.445-12A1,1,0,0,0,491.742,3627Zm0.539,12h-1.662a1.989,1.989,0,0,0-1.789,1.1l-1.447,2.9h-6.766l-1.447-2.9a1.99,1.99,0,0,0-1.789-1.1h-4.047l2.924-11h15.484l2.924,11h-2.385Z" transform="translate(-468 -3623)"/>
</svg>
