<svg xmlns="http://www.w3.org/2000/svg" width="32" height="32" viewBox="0 0 32 32">
  <metadata><?xpacket begin="﻿" id="W5M0MpCehiHzreSzNTczkc9d"?>
<x:xmpmeta xmlns:x="adobe:ns:meta/" x:xmptk="Adobe XMP Core 5.6-c142 79.160924, 2017/07/13-01:06:39        ">
   <rdf:RDF xmlns:rdf="http://www.w3.org/1999/02/22-rdf-syntax-ns#">
      <rdf:Description rdf:about=""/>
   </rdf:RDF>
</x:xmpmeta>
                                                                                                    
                                                                                                    
                                                                                                    
                                                                                                    
                                                                                                    
                                                                                                    
                                                                                                    
                                                                                                    
                                                                                                    
                                                                                                    
                                                                                                    
                                                                                                    
                                                                                                    
                                                                                                    
                                                                                                    
                                                                                                    
                                                                                                    
                                                                                                    
                                                                                                    
                                                                                                    
                           
<?xpacket end="w"?></metadata>
<defs>
    <style>
      .cls-1 {
        fill: #fff;
        fill-rule: evenodd;
      }
    </style>
  </defs>
  <path id="user" class="cls-1" d="M1018.11,3649.33a29.331,29.331,0,0,0-9.27-3.69,22.933,22.933,0,0,0,3.81-8.17c0.75-3.13.46-9.25-2.55-13.07a9.118,9.118,0,0,0-14.205,0c-3,3.82-3.3,9.94-2.543,13.07a22.817,22.817,0,0,0,3.811,8.17,29.291,29.291,0,0,0-9.272,3.69A2,2,0,0,0,989,3653h28A2.005,2.005,0,0,0,1018.11,3649.33Zm-10.84-4.93-0.33.41c-2.39,2.74-5.49,2.74-7.88,0l-0.327-.41a17.1,17.1,0,0,1-3.572-12.65c0.546-4.28,3-8.75,7.839-8.75s7.29,4.47,7.84,8.75A17.141,17.141,0,0,1,1007.27,3644.4ZM989,3651a27.4,27.4,0,0,1,8.586-3.41l2.484-.54a4.993,4.993,0,0,0,5.86,0l2.48,0.54A27.281,27.281,0,0,1,1017,3651H989Z" transform="translate(-987 -3621)"/>
</svg>
